<svg width="244" height="60" viewBox="0 0 244 60" fill="none" xmlns="http://www.w3.org/2000/svg">
<path d="M52.875 59V29.9091H73.8409V36.2727H60.7727V41.2727H72.7614V47.6364H60.7727V52.6364H73.7841V59H52.875ZM88.951 59H77.7578V29.9091H88.8374C91.8298 29.9091 94.415 30.4915 96.593 31.6562C98.7805 32.8116 100.466 34.4782 101.65 36.6562C102.843 38.8248 103.44 41.4242 103.44 44.4545C103.44 47.4848 102.848 50.089 101.664 52.267C100.48 54.4356 98.8042 56.1023 96.6357 57.267C94.4671 58.4223 91.9055 59 88.951 59ZM85.6555 52.2955H88.6669C90.1063 52.2955 91.3326 52.0634 92.3459 51.5994C93.3686 51.1354 94.1451 50.3352 94.6754 49.1989C95.2152 48.0625 95.4851 46.4811 95.4851 44.4545C95.4851 42.428 95.2105 40.8466 94.6612 39.7102C94.1214 38.5739 93.326 37.7737 92.2749 37.3097C91.2332 36.8456 89.9548 36.6136 88.4396 36.6136H85.6555V52.2955ZM124.31 29.9091H132.207V48.5455C132.207 50.7614 131.677 52.679 130.616 54.2983C129.565 55.9081 128.098 57.1534 126.213 58.0341C124.329 58.9053 122.141 59.3409 119.651 59.3409C117.141 59.3409 114.944 58.9053 113.06 58.0341C111.175 57.1534 109.707 55.9081 108.656 54.2983C107.615 52.679 107.094 50.7614 107.094 48.5455V29.9091H114.991V47.8636C114.991 48.7633 115.19 49.5682 115.588 50.2784C115.986 50.9792 116.535 51.5284 117.236 51.9261C117.946 52.3239 118.751 52.5227 119.651 52.5227C120.56 52.5227 121.365 52.3239 122.065 51.9261C122.766 51.5284 123.315 50.9792 123.713 50.2784C124.111 49.5682 124.31 48.7633 124.31 47.8636V29.9091Z" fill="#F4BF00"/>
<path d="M143.915 29.9091L149.881 50.4205H150.109L156.075 29.9091H164.995L155.393 59H144.597L134.995 29.9091H143.915ZM175.695 29.9091V59H167.797V29.9091H175.695ZM206.597 40.8182H198.585C198.528 40.1553 198.377 39.554 198.131 39.0142C197.894 38.4744 197.563 38.0104 197.136 37.6222C196.72 37.2244 196.213 36.9214 195.616 36.7131C195.02 36.4953 194.343 36.3864 193.585 36.3864C192.259 36.3864 191.137 36.7083 190.219 37.3523C189.31 37.9962 188.618 38.9195 188.145 40.1222C187.681 41.3248 187.449 42.7689 187.449 44.4545C187.449 46.2348 187.686 47.7263 188.159 48.929C188.642 50.1222 189.338 51.0218 190.247 51.6278C191.156 52.2244 192.25 52.5227 193.528 52.5227C194.258 52.5227 194.911 52.4328 195.489 52.2528C196.066 52.0634 196.568 51.7936 196.994 51.4432C197.42 51.0928 197.766 50.6714 198.031 50.179C198.306 49.6771 198.491 49.1136 198.585 48.4886L206.597 48.5455C206.502 49.7765 206.156 51.0312 205.56 52.3097C204.963 53.5786 204.116 54.7528 203.017 55.8324C201.928 56.9025 200.579 57.7642 198.969 58.4176C197.359 59.071 195.489 59.3977 193.358 59.3977C190.688 59.3977 188.292 58.8248 186.17 57.679C184.059 56.5331 182.387 54.8475 181.156 52.6222C179.935 50.3968 179.324 47.6742 179.324 44.4545C179.324 41.2159 179.949 38.4886 181.199 36.2727C182.449 34.0473 184.134 32.3665 186.256 31.2301C188.377 30.0843 190.744 29.5114 193.358 29.5114C195.195 29.5114 196.885 29.7623 198.429 30.2642C199.973 30.7661 201.327 31.5 202.491 32.4659C203.656 33.4223 204.594 34.6013 205.304 36.0028C206.014 37.4044 206.445 39.0095 206.597 40.8182ZM210.18 59V29.9091H231.146V36.2727H218.077V41.2727H230.066V47.6364H218.077V52.6364H231.089V59H210.18Z" fill="white"/>
<g clip-path="url(#clip0_352_1097)">
<path d="M41.1312 58H16.8686C16.1443 58 15.557 57.4127 15.557 56.6883V50.6229C15.557 49.8985 16.1443 49.3112 16.8686 49.3112H41.1312C41.8555 49.3112 42.4428 49.8985 42.4428 50.6229V56.6883C42.4428 57.4129 41.8555 58 41.1312 58ZM18.1803 55.3767H39.8195V51.9345H18.1803V55.3767ZM35.0654 47.5523C34.341 47.5523 33.7537 46.965 33.7537 46.2406V37.0245C33.7537 36.3001 34.341 35.7128 35.0654 35.7128C35.7897 35.7128 36.377 36.3001 36.377 37.0245V46.2406C36.377 46.965 35.7897 47.5523 35.0654 47.5523ZM29.032 47.5523C28.3077 47.5523 27.7204 46.965 27.7204 46.2406V37.0245C27.7204 36.3001 28.3077 35.7128 29.032 35.7128C29.7564 35.7128 30.3437 36.3001 30.3437 37.0245V46.2406C30.3437 46.965 29.7564 47.5523 29.032 47.5523ZM22.9985 47.5523C22.2742 47.5523 21.6869 46.965 21.6869 46.2406V37.0245C21.6869 36.3001 22.2742 35.7128 22.9985 35.7128C23.7229 35.7128 24.3102 36.3001 24.3102 37.0245V46.2406C24.3102 46.965 23.7229 47.5523 22.9985 47.5523ZM41.1312 33.9537H16.8686C16.1443 33.9537 15.557 33.3664 15.557 32.6421V26.5764C15.557 25.8521 16.1443 25.2648 16.8686 25.2648H27.6884V22.025L19.5521 19.4833C19.0045 19.3123 18.6317 18.805 18.6317 18.2313V5.0153C18.6317 4.59803 18.8302 4.20567 19.1664 3.95859C19.5026 3.71134 19.9361 3.63871 20.3346 3.76348L29.0737 6.49371L37.6656 3.80939C38.064 3.68494 38.4978 3.75758 38.8338 4.00466C39.1699 4.25175 39.3684 4.6441 39.3684 5.06137V18.2774C39.3684 18.8512 38.9956 19.3582 38.448 19.5294L30.3119 22.0712V25.2649H41.1313C41.8557 25.2649 42.443 25.8522 42.443 26.5766V32.6422C42.4428 33.3664 41.8555 33.9537 41.1312 33.9537ZM18.1803 31.3304H39.8195V27.8881H18.1803V31.3304ZM30.3117 8.8552V19.3228L36.7449 17.313V6.84524L30.3117 8.8552ZM21.255 17.2669L27.6884 19.2767V8.80913L21.255 6.79933V17.2669ZM15.6314 23.567C15.3451 23.567 15.0571 23.4739 14.8157 23.2819L9.97765 19.4343C9.41068 18.9834 9.31657 18.1582 9.76745 17.5912C10.2185 17.0242 11.0439 16.9301 11.6105 17.381L12.0458 17.7271L12.2754 16.8495C12.4587 16.1485 13.1761 15.7291 13.8762 15.9126C14.577 16.0959 14.9966 16.8127 14.8133 17.5135L14.2904 19.5123L16.4486 21.2286C17.0155 21.6795 17.1097 22.5047 16.6588 23.0717C16.3999 23.3973 16.0175 23.567 15.6314 23.567ZM42.3685 23.567C41.9826 23.567 41.6001 23.3973 41.341 23.0717C40.8901 22.5047 40.9842 21.6795 41.5512 21.2286L43.7094 19.5121L43.1864 17.5135C43.0029 16.8127 43.4223 16.0959 44.1232 15.9124C44.8243 15.7288 45.5408 16.1485 45.7243 16.8493L45.954 17.7271L46.3891 17.381C46.9561 16.9303 47.7813 17.0242 48.232 17.5912C48.6831 18.1582 48.589 18.9834 48.022 19.4343L43.1841 23.2819C42.9429 23.4737 42.6547 23.567 42.3685 23.567ZM8.70468 16.5655C8.32954 16.5655 7.95703 16.4055 7.69765 16.0951L6.57929 14.7572C6.11463 14.2014 6.18858 13.3742 6.7444 12.9096C7.30038 12.4451 8.12738 12.5188 8.59204 13.0747L9.7104 14.4126C10.1751 14.9684 10.1011 15.7955 9.54529 16.2602C9.29985 16.4653 9.00144 16.5655 8.70468 16.5655ZM49.2951 16.5655C48.9982 16.5655 48.7 16.4653 48.4545 16.2602C47.8987 15.7955 47.8247 14.9684 48.2894 14.4126L49.4079 13.0747C49.8727 12.5187 50.7001 12.4454 51.2556 12.9097C51.8114 13.3744 51.8853 14.2015 51.4207 14.7574L50.3022 16.0953C50.0428 16.4055 49.6703 16.5655 49.2951 16.5655ZM45.9932 14.8397C45.456 14.8397 44.9519 14.5072 44.7592 13.9725L44.168 12.3321C43.9224 11.6505 44.2757 10.8989 44.9571 10.6533C45.638 10.4074 46.3901 10.7609 46.6359 11.4425L47.2271 13.0829C47.4727 13.7644 47.1194 14.516 46.438 14.7616C46.2911 14.8146 46.1407 14.8397 45.9932 14.8397ZM12.007 14.8397C11.8594 14.8397 11.7092 14.8146 11.5623 14.7616C10.8807 14.516 10.5274 13.7644 10.773 13.083L11.3641 11.4426C11.6097 10.761 12.3613 10.4077 13.0427 10.6533C13.7243 10.8989 14.0776 11.6505 13.832 12.3319L13.2409 13.9723C13.0483 14.507 12.5442 14.8397 12.007 14.8397ZM49.295 11.4372C49.0713 11.4372 48.8446 11.3798 48.637 11.2593C48.0108 10.8953 47.7982 10.0924 48.1622 9.46611L49.0385 7.95835C49.4027 7.33219 50.2049 7.11937 50.8319 7.48352C51.4581 7.84751 51.6707 8.65041 51.3067 9.27673L50.4304 10.7845C50.1869 11.2032 49.747 11.4372 49.295 11.4372ZM8.70501 11.4372C8.25297 11.4372 7.81324 11.2034 7.5696 10.7845L6.69324 9.27673C6.32925 8.65041 6.54191 7.84768 7.16806 7.48352C7.79488 7.11937 8.59729 7.33219 8.96144 7.95835L9.83779 9.46611C10.2018 10.0924 9.98913 10.8952 9.36297 11.2593C9.1554 11.38 8.92864 11.4372 8.70501 11.4372ZM11.8978 9.27345C11.7231 9.27345 11.5456 9.23837 11.3751 9.16426C10.7107 8.8752 10.4066 8.10247 10.6955 7.43827L11.3911 5.83919C11.6802 5.17499 12.4533 4.87069 13.1171 5.15958C13.7815 5.44864 14.0856 6.22137 13.7967 6.88557L13.101 8.48465C12.8863 8.97866 12.4039 9.27345 11.8978 9.27345ZM46.1024 9.27345C45.5961 9.27345 45.1139 8.97866 44.8989 8.48465L44.2034 6.88557C43.9143 6.22121 44.2188 5.44848 44.8832 5.15958C45.5469 4.87052 46.3201 5.17483 46.609 5.83919L47.3045 7.43827C47.5936 8.10263 47.2891 8.87536 46.6247 9.16426C46.4545 9.23837 46.277 9.27345 46.1024 9.27345ZM9.00341 5.94035C8.82879 5.94035 8.65139 5.90526 8.48088 5.83115C7.81652 5.54226 7.51221 4.76953 7.80111 4.10517L8.49662 2.50609C8.78584 1.84173 9.55857 1.53775 10.2224 1.82648C10.8868 2.11537 11.1911 2.88811 10.9022 3.55247L10.2067 5.15155C9.99208 5.64555 9.50971 5.94035 9.00341 5.94035ZM48.9966 5.94035C48.4903 5.94035 48.008 5.64555 47.7931 5.15155L47.0974 3.55247C46.8084 2.88827 47.1127 2.11537 47.777 1.82648C48.4411 1.53759 49.2141 1.84156 49.503 2.50609L50.1987 4.10517C50.4878 4.76936 50.1834 5.54226 49.5191 5.83115C49.3489 5.90526 49.1713 5.94035 48.9966 5.94035ZM13.6608 3.49705C13.3503 3.49705 13.0387 3.38752 12.7887 3.1647C12.2478 2.68283 12.2001 1.8537 12.6821 1.3128L13.4604 0.439066C13.9425 -0.101832 14.7715 -0.149707 15.3125 0.332329C15.8534 0.814202 15.9011 1.64334 15.4191 2.18424L14.6406 3.05797C14.3814 3.34883 14.0218 3.49705 13.6608 3.49705ZM44.339 3.49705C43.9778 3.49705 43.6182 3.34867 43.3589 3.0578L42.5807 2.18407C42.099 1.64301 42.1469 0.814038 42.6879 0.332165C43.2288 -0.149707 44.058 -0.101668 44.5398 0.43923L45.318 1.31296C45.7997 1.85402 45.7518 2.683 45.2108 3.16487C44.9609 3.38752 44.6492 3.49705 44.339 3.49705Z" fill="white"/>
</g>
<defs>
<clipPath id="clip0_352_1097">
<rect width="58" height="58" fill="white"/>
</clipPath>
</defs>
</svg>
